# File created by Blade
# Date/Time:  Wed Jan 21 17:41:14 2015
# Frame Rate: 120.000 fps
#------------------------------------------------------
:FULLY-SPECIFIED
:DEGREES
1699
root 15.441750 29.593531 -20.406162 -571.914453 75.042104 -595.574495
Spine -29.386375 -8.336485 -4.785015
Head -4.374574 -1.201474 -6.316911
LeftShoulder -12.641096 -46.048182 30.736674
LeftArm 49.030412 -23.132033 4.231637
LeftForeArm -15.467532 -0.000000 -6.936390
LeftHand -0.252602 -0.000000 25.383803
LeftHandThumb1 -26.253704 0.000000 33.147579
RightShoulder -10.318056 14.607525 -33.163133
RightArm 38.219347 54.956903 -10.673176
RightForeArm -35.262350 -0.000000 6.511874
RightHand -10.580016 -0.000000 -24.513901
RightHandThumb1 -24.326973 -0.000000 -32.862282
LeftUpLeg 8.510990 10.407040 -8.228914
LeftLeg 2.703174 -0.000000 -0.000000
LeftFoot -47.569879 18.156480 -21.480823
LeftToeBase 24.327199 -0.000000 -0.000000
RightUpLeg -74.663523 -9.024415 -5.272615
RightLeg 67.675770 -0.000000 -0.000000
RightFoot -36.998527 -14.679532 21.376882
RightToeBase 28.800347 -0.000000 -0.000000
1700
root 15.416208 29.622774 -20.396472 -571.643345 74.956081 -595.180888
Spine -29.205567 -8.345778 -4.790023
Head -4.522483 -1.370493 -6.290540
LeftShoulder -12.638926 -46.133944 30.707764
LeftArm 48.996537 -22.960472 4.272976
LeftForeArm -15.329059 0.000000 -6.879145
LeftHand -0.323705 -0.000000 25.274123
LeftHandThumb1 -26.253704 0.000000 33.147579
RightShoulder -10.361028 14.494488 -33.113654
RightArm 38.175442 55.079807 -10.649531
RightForeArm -35.336696 -0.000000 6.585339
RightHand -10.632117 -0.000000 -24.349794
RightHandThumb1 -24.326973 -0.000000 -32.862282
LeftUpLeg 8.536362 10.444154 -8.171490
LeftLeg 2.739505 -0.000000 -0.000000
LeftFoot -47.467518 18.150262 -21.426086
LeftToeBase 24.275753 -0.000000 -0.000000
RightUpLeg -74.465025 -9.144540 -5.241346
RightLeg 67.485330 -0.000000 -0.000000
RightFoot -36.886687 -14.663113 21.396815
RightToeBase 29.009291 -0.000000 -0.000000
1701
root 15.383997 29.655770 -20.388337 -571.269551 74.857752 -594.701070
Spine -29.042091 -8.373647 -4.766227
Head -4.617189 -1.402965 -6.301641
LeftShoulder -12.666130 -45.988317 30.669022
LeftArm 49.016158 -22.990799 4.209830
LeftForeArm -15.278372 -0.000000 -6.854858
LeftHand -0.279457 -0.000000 25.336721
LeftHandThumb1 -26.253704 0.000000 33.147579
RightShoulder -10.370393 14.457878 -33.081319
RightArm 38.083723 55.062907 -10.695292
RightForeArm -35.513995 -0.000000 6.601556
RightHand -10.623516 -0.000000 -24.416748
RightHandThumb1 -24.326973 -0.000000 -32.862282
LeftUpLeg 8.518669 10.400812 -8.127143
LeftLeg 2.789470 -0.000000 -0.000000
LeftFoot -47.399851 18.247211 -21.380993
LeftToeBase 24.272194 -0.000000 -0.000000
RightUpLeg -74.277683 -9.313790 -5.175281
RightLeg 67.266337 -0.000000 -0.000000
RightFoot -36.730568 -14.665851 21.390737
RightToeBase 29.438697 -0.000000 -0.000000
1702
root 15.344960 29.692773 -20.379064 -570.869803 74.757804 -594.213826
Spine -28.888423 -8.411189 -4.736030
Head -4.685157 -1.488035 -6.281100
LeftShoulder -12.615368 -45.943848 30.601336
LeftArm 48.964906 -22.906183 4.274658
LeftForeArm -15.315143 -0.000000 -6.855510
LeftHand -0.266081 -0.000000 25.320590
LeftHandThumb1 -26.253704 0.000000 33.147579
RightShoulder -10.409317 14.465589 -33.058323
RightArm 38.101622 54.969737 -10.655804
RightForeArm -35.499977 -0.000000 6.611683
RightHand -10.623221 -0.000000 -24.542348
RightHandThumb1 -24.326973 -0.000000 -32.862282
LeftUpLeg 8.467060 10.418559 -8.078807
LeftLeg 2.838559 -0.000000 -0.000000
LeftFoot -47.315143 18.315130 -21.295296
LeftToeBase 24.240164 -0.000000 -0.000000
RightUpLeg -74.108996 -9.511354 -5.080268
RightLeg 67.007889 -0.000000 -0.000000
RightFoot -36.568736 -14.605319 21.384326
RightToeBase 29.382535 -0.000000 -0.000000
